<svg width="70" height="70" fill="none" xmlns="http://www.w3.org/2000/svg"><path d="M66.974 48.339l-18.47-18.605 2.05-10.097a4.655 4.655 0 001.66.319h.013a4.723 4.723 0 10-4.393-3.14l-10.85 1.325L19.285.35a1.166 1.166 0 00-.823-.35c-.307.002-.6.124-.817.34l-3.309 3.29a1.167 1.167 0 000 1.65l1.78 1.805a32.686 32.686 0 005.512 38.638c.093.09.201.161.32.213a6.77 6.77 0 00-.115 1.197v13.534h-14A5.84 5.84 0 002 66.5v2.333C2 69.478 2.522 70 3.167 70h53.666c.645 0 1.167-.522 1.167-1.167V66.5a5.84 5.84 0 00-5.833-5.833h-14v-5.998a32.88 32.88 0 006.668.7 32.483 32.483 0 0015.4-3.901l1.79 1.8c.217.221.514.347.824.35.306-.002.6-.124.816-.34l3.309-3.29a1.167 1.167 0 000-1.65zM50.582 13.635a2.333 2.333 0 111.645 3.987h-.007a2.333 2.333 0 01-1.633-3.987h-.005zM47.836 21.3l-1.309 6.444-2.571-2.587 3.88-3.857zm-1.325-1.973l-4.2 4.176-3.25-3.267 7.45-.909zM52.167 63a3.5 3.5 0 013.5 3.5v1.167H4.333V66.5a3.5 3.5 0 013.5-3.5h44.334zm-16.334-4.667v2.334H24.167v-2.334h11.666zM24.167 56v-8.867C24.167 44.303 26.783 42 30 42s5.833 2.303 5.833 5.133V56H24.167zm14-3.71v-5.157c0-4.117-3.664-7.466-8.167-7.466a8.312 8.312 0 00-7.177 3.907A30.34 30.34 0 0117.838 8.82L58.53 49.746a30.233 30.233 0 01-20.363 2.544zm24.694-1.496l-1.643-1.653L18.45 6.116 16.8 4.46l1.65-1.645 17.358 17.456c.008 0 .013.015.02.021l28.689 28.856-1.655 1.645z" fill="#212121"/><path d="M30.01 44.333H30a3.5 3.5 0 10-.01 7H30a3.5 3.5 0 00.01-7zm.817 4.328A1.167 1.167 0 1130 46.666a1.166 1.166 0 01.817 1.993h.01z" fill="#2196F3"/></svg>